Coordinates
version=1
nRows=12
nColumns=24
inDegrees=yes

Units are S.I. units (second, meters, Newtons, ...)
Angles are in degrees.

endheader
time	pelvis_tilt	pelvis_list	pelvis_rotation	pelvis_tx	pelvis_ty	pelvis_tz	hip_flexion_r	hip_adduction_r	hip_rotation_r	knee_angle_r	ankle_angle_r	subtalar_angle_r	mtp_angle_r	hip_flexion_l	hip_adduction_l	hip_rotation_l	knee_angle_l	ankle_angle_l	subtalar_angle_l	mtp_angle_l	lumbar_extension	lumbar_bending	lumbar_rotation
      4.08500000	    -16.72156686	     -3.73088451	     -2.02333747	     -1.36780252	      0.00250302	     -0.27434171	      3.59844252	      8.19973798	      7.06028468	     -1.07233862	     -0.71985480	     -0.56579429	      6.58778105	     44.35079368	      0.32032170	      3.06681660	    -43.84880755	      4.25727473	     -2.17658142	    -31.23400556	     12.47971977	      1.34316938	      7.03460575
      4.09000000	    -16.68610890	     -3.60487219	     -2.31873365	     -1.36127309	      0.00205784	     -0.27411644	      2.97996061	      8.07225605	      6.81446798	     -0.90693677	     -0.41019300	      0.25801514	      6.27339779	     44.44539666	      0.19641106	      2.99457005	    -42.02716779	      4.40269201	     -1.95786964	    -31.65216297	     12.38129983	      1.31422333	      7.37849244
      4.09500000	    -16.65734605	     -3.48456281	     -2.52102554	     -1.35460053	      0.00142347	     -0.27402848	      2.37097329	      7.93950594	      6.44192261	     -0.75768120	     -0.04823363	      1.11832459	      6.11996548	     44.52057481	      0.12559187	      2.98242109	    -40.19055227	      4.77709082	     -1.63244212	    -32.70027967	     12.31496815	      1.27673510	      7.51481785
      4.10000000	    -16.72660867	     -3.45149163	     -2.93243897	     -1.34806755	      0.00043167	     -0.27328879	      1.84207964	      7.96047157	      6.57666652	     -0.40315392	     -0.70675984	      0.73709858	      9.09464997	     44.85042752	     -0.33101324	      2.97368967	    -39.05856403	     15.71196579	      1.19015743	    -84.55033238	     12.32798282	      1.33313371	      7.90828627
      4.10500000	    -16.77176645	     -3.31669481	     -3.15608243	     -1.34150028	     -0.00040711	     -0.27319893	      1.45379062	      7.83721031	      6.22550938	     -0.58443343	      0.11705735	      1.77224253	      7.42536042	     44.92743866	     -0.41072240	      3.00648132	    -37.06695316	     15.80591186	      1.37235431	    -84.66299204	     12.32479935	      1.28903429	      8.11284554
      4.11000000	    -16.84912005	     -3.16920543	     -3.47760559	     -1.33500039	     -0.00141556	     -0.27291670	      1.05777485	      7.70342662	      6.37456272	     -0.59600009	      0.35031089	      1.90080756	      7.45163591	     45.01903460	     -0.59132093	      2.92294198	    -35.07808345	     16.01470180	      1.74748242	    -84.62788505	     12.34510728	      1.25179986	      8.38845585
      4.11500000	    -16.89339365	     -3.00386118	     -3.74990736	     -1.32850752	     -0.00243757	     -0.27275155	      0.66811128	      7.54526694	      6.41606454	     -0.67775088	      0.62830181	      2.07099161	      7.53887522	     45.02341346	     -0.70384282	      2.94788212	    -33.00159855	     16.18305035	      2.05780225	    -84.60636855	     12.32466695	      1.18818461	      8.64521644
      4.12000000	    -16.98783503	     -2.82476568	     -4.00100262	     -1.32194298	     -0.00361278	     -0.27263283	      0.35153866	      7.37630749	      6.44843402	     -0.79966038	      0.93077432	      2.16908376	      7.65481230	     45.04309890	     -0.79483784	      3.00368496	    -30.88150782	     16.40715149	      2.39206154	    -84.57451700	     12.37309548	      1.11301778	      8.84488212
      4.12500000	    -17.07067284	     -2.64268979	     -4.25591861	     -1.31545980	     -0.00482204	     -0.27252351	      0.06335369	      7.20567908	      6.50776481	     -0.98667684	      1.25126032	      2.22538354	      7.79804790	     45.01778782	     -0.88794880	      3.12108834	    -28.71529736	     16.60286814	      2.73293918	    -84.54979454	     12.39269991	      1.03613940	      9.06699204
      4.13000000	    -17.17299963	     -2.46065863	     -4.50642646	     -1.30896435	     -0.00613163	     -0.27240678	     -0.18702032	      7.04053145	      6.58840504	     -1.20538151	      1.57981067	      2.20675538	      7.94698185	     44.98708554	     -0.98566560	      3.27865508	    -26.52882550	     16.80544739	      3.07691084	    -84.51924193	     12.43594216	      0.95529749	      9.26843189
      4.13500000	    -17.28094801	     -2.28482001	     -4.75947216	     -1.30250025	     -0.00751073	     -0.27229370	     -0.40606502	      6.88361368	      6.70954654	     -1.46922854	      1.91120665	      2.12489988	      8.10324786	     44.93979074	     -1.09651655	      3.48124556	    -24.32569636	     16.97299735	      3.40394561	    -84.48396835	     12.47484642	      0.88274217	      9.46992460
      4.14000000	    -17.40599242	     -2.12546162	     -5.01214510	     -1.29600665	     -0.00899345	     -0.27217944	     -0.59685692	      6.74631407	      6.86333138	     -1.75913050	      2.23510963	      1.98539193	      8.25170249	     44.89491933	     -1.22819871	      3.72559161	    -22.13064690	     17.12475386	      3.70504069	    -84.43307210	     12.53359497	      0.82928276	      9.66446263
